<svg width="27" height="28" fill="none" xmlns="http://www.w3.org/2000/svg"><path fill-rule="evenodd" clip-rule="evenodd" d="M12.524.519c-1.708.166-3.088.51-4.432 1.105-.988.438-2.173 1.125-2.454 1.424-.28.297-.096.784.32.849.159.024.256-.02.762-.347.68-.439 1.735-.968 2.48-1.244.533-.197 1.845-.551 2.043-.551.104 0 .104.002.01.145-.855 1.282-1.455 2.869-1.944 5.137l-.086.402-.353.087c-.772.19-1.358.742-1.615 1.523-.028.086-.2.092-2.617.092-1.423 0-2.587-.015-2.587-.033 0-.095.611-1.267.876-1.681.378-.591.404-.797.13-1.04-.15-.136-.207-.155-.382-.132-.272.036-.313.076-.659.635a13.535 13.535 0 0 0 .274 14.64l.224.335-.155.3a2.215 2.215 0 0 0-.217 1.359c.255 1.488 1.857 2.3 3.186 1.614l.298-.154.468.303c2.145 1.39 4.403 2.104 6.953 2.2 4.708.174 9.149-2.138 11.779-6.135 1.493-2.268 2.267-5.062 2.165-7.81-.095-2.55-.809-4.808-2.199-6.953l-.303-.467.154-.299c.213-.413.292-.91.216-1.356-.255-1.49-1.857-2.3-3.188-1.613l-.301.155-.335-.224C19.356 1.658 17.47.934 15.4.62c-.526-.08-2.42-.147-2.876-.102Zm1.438 1.155c1.158.539 2.315 3.156 2.86 6.465l.137.831.029.172-2.725-.013-2.725-.014-.097-.254c-.18-.473-.513-.83-1.154-1.235-.03-.02.135-.786.347-1.598.695-2.672 1.853-4.483 2.867-4.483.101 0 .309.058.461.129Zm2.607.259c.387.098.941.266 1.232.373 1.203.446 2.924 1.411 2.85 1.6a2.633 2.633 0 0 0-.17 1.067c.128 1.536 1.638 2.445 3.108 1.872.071-.027.157.066.395.432.288.441.966 1.716.966 1.817 0 .027-1.469.047-3.446.047h-3.446l-.144-.883c-.42-2.574-1.117-4.722-1.956-6.029a36.085 36.085 0 0 1-.26-.409c-.063-.103.102-.082.871.113ZM23.215 3.8c.86.45.81 1.667-.085 2.076-.768.35-1.68-.315-1.598-1.166.056-.58.575-1.057 1.15-1.057.172 0 .34.046.533.147Zm-19.349.771c-.197.197-.227.368-.104.604.181.352.723.352.905 0 .14-.27.054-.578-.197-.708-.237-.123-.407-.093-.604.104Zm6.03 4.07c.552.275.798.934.551 1.476-.411.9-1.624.945-2.08.078-.128-.244-.149-.337-.131-.589.059-.842.912-1.338 1.66-.965Zm-2.64 1.647c.19.58.634 1.108 1.137 1.353l.3.147-.03 1.46a41.88 41.88 0 0 0 .123 4.084l.034.462H1.637l-.056-.172c-.115-.357-.32-1.28-.41-1.849-.069-.442-.092-.897-.09-1.805 0-1.441.103-2.193.476-3.495l.08-.277H4.43c2.614 0 2.796.006 2.824.092Zm9.857-.026c.11.336.22 3.73.162 5.006l-.04.878-.173.028c-.32.052-.759.31-1.057.623-.263.276-.55.76-.552.93 0 .097-5.534.097-5.565 0-.11-.336-.22-3.73-.162-5.003l.039-.875.257-.066c.325-.084.821-.402 1.043-.67.153-.184.369-.58.45-.825.028-.086.209-.092 2.803-.092 2.172 0 2.778.014 2.795.066Zm8.306.105c.116.359.32 1.28.41 1.849.13.836.13 2.685 0 3.52-.097.62-.24 1.288-.384 1.78l-.08.277H19.75l-.151-.346a2.319 2.319 0 0 0-.975-1.07l-.316-.17.03-1.462a41.847 41.847 0 0 0-.123-4.088l-.034-.461h7.183l.055.171Zm-7.325 6.938c.188.095.341.224.445.374.143.207.159.269.159.642s-.016.435-.159.642c-.186.267-.632.519-.92.519-.666-.002-1.184-.509-1.184-1.16 0-.875.879-1.413 1.66-1.017Zm-9.007 2.427c.428 2.625 1.128 4.757 2.006 6.108.199.305.224.372.15.384-.143.024-1.46-.324-2.043-.54-1.203-.446-2.924-1.411-2.85-1.6a2.63 2.63 0 0 0 .17-1.067c-.128-1.536-1.638-2.445-3.108-1.872-.071.027-.157-.066-.395-.431-.289-.442-.966-1.717-.966-1.818 0-.027 1.469-.047 3.446-.047h3.446l.144.883Zm6.366-.817c0 .036.059.19.13.344.16.343.586.801.9.968.13.069.236.152.236.186 0 .121-.32 1.468-.48 2.014-.593 2.038-1.452 3.505-2.275 3.889-.351.163-.575.163-.925 0-1.16-.54-2.273-3.056-2.861-6.465a38.02 38.02 0 0 1-.16-.963c0-.021 1.223-.04 2.717-.04 2.139 0 2.718.015 2.718.067Zm9.497-.032c0 .07-.624 1.274-.845 1.629-.983 1.579-2.508 3.104-4.087 4.087-.553.344-1.518.816-2.167 1.06-.576.216-1.882.576-2.09.576-.108 0-.108-.002-.013-.145.847-1.27 1.473-2.925 1.944-5.136l.086-.4.328-.092c.706-.196 1.214-.628 1.493-1.266l.151-.347h2.6c1.43 0 2.6.015 2.6.034Zm-20.096 3.28c.883.461.795 1.741-.145 2.1-.753.288-1.595-.341-1.538-1.149.042-.61.552-1.099 1.149-1.099.173 0 .34.046.534.148Z" fill="#8E2424"/></svg>